<svg width="16" height="16" viewBox="0 0 16 16" fill="none" xmlns="http://www.w3.org/2000/svg">
<g clip-path="url(#clip0_8427_89)">
<path d="M11.3333 4H14.6667V5.33334H13.3333V14C13.3333 14.1768 13.2631 14.3464 13.1381 14.4714C13.0131 14.5964 12.8435 14.6667 12.6667 14.6667H3.33334C3.15653 14.6667 2.98696 14.5964 2.86194 14.4714C2.73691 14.3464 2.66668 14.1768 2.66668 14V5.33334H1.33334V4H4.66668V2C4.66668 1.82319 4.73691 1.65362 4.86194 1.5286C4.98696 1.40357 5.15653 1.33334 5.33334 1.33334H10.6667C10.8435 1.33334 11.0131 1.40357 11.1381 1.5286C11.2631 1.65362 11.3333 1.82319 11.3333 2V4ZM6.00001 7.33334V11.3333H7.33334V7.33334H6.00001ZM8.66668 7.33334V11.3333H10V7.33334H8.66668ZM6.00001 2.66667V4H10V2.66667H6.00001Z" fill="#FA4A0C"/>
</g>
<defs>
<clipPath id="clip0_8427_89">
<rect width="16" height="16" fill="white"/>
</clipPath>
</defs>
</svg>
