<svg width="16" height="16" viewBox="0 0 16 16" fill="none" xmlns="http://www.w3.org/2000/svg">
<g clip-path="url(#clip0_8427_86)">
<path d="M11.1713 2L6.194 6.97733L6.19933 9.80867L9.02467 9.804L14 4.82867V13.3333C14 13.5101 13.9298 13.6797 13.8047 13.8047C13.6797 13.9298 13.5101 14 13.3333 14H2.66667C2.48986 14 2.32029 13.9298 2.19526 13.8047C2.07024 13.6797 2 13.5101 2 13.3333V2.66667C2 2.48986 2.07024 2.32029 2.19526 2.19526C2.32029 2.07024 2.48986 2 2.66667 2H11.1713ZM13.6567 1.4L14.6 2.344L8.472 8.472L7.53067 8.474L7.52933 7.52934L13.6567 1.4Z" fill="#FA4A0C"/>
</g>
<defs>
<clipPath id="clip0_8427_86">
<rect width="16" height="16" fill="white"/>
</clipPath>
</defs>
</svg>
